<svg width="48px" height="48px" viewBox="0 0 48 48" version="1.1" xmlns="http://www.w3.org/2000/svg" xmlns:xlink="http://www.w3.org/1999/xlink">
    <g id="메인" stroke="none" stroke-width="1" fill="none" fill-rule="evenodd">
        <g id="main/login/web" transform="translate(-123.000000, -9335.000000)">
            <g id="Group-3" transform="translate(123.000000, 9335.000000)">
                <rect id="Rectangle" x="0" y="0" width="48" height="48"></rect>
                <path d="M36.2222222,6 L9.77777778,6 C7.68111111,6 6,7.66160573 6,9.69245718 L6,35.5396575 C6,37.5705089 7.7,39.2321147 9.77777778,39.2321147 L17.3333333,39.2321147 L21.6588889,43.4599781 C22.3955556,44.1800073 23.5855556,44.1800073 24.3222222,43.4599781 L28.6666667,39.2321147 L36.2222222,39.2321147 C38.3,39.2321147 40,37.5705089 40,35.5396575 L40,9.69245718 C40,7.66160573 38.3,6 36.2222222,6 Z M23,12 C25.7592593,12 28,14.2407407 28,17 C28,19.7592593 25.7592593,22 23,22 C20.2407407,22 18,19.7592593 18,17 C18,14.2407407 20.2407407,12 23,12 Z M34,32 L12,32 L12,30.65 C12,27.65 19.3333333,26 23,26 C26.6666667,26 34,27.65 34,30.65 L34,32 Z" id="Shape" fill="#FF5100" fill-rule="nonzero"></path>
            </g>
        </g>
    </g>
</svg>