<svg
	width="1.563rem"
	height="1.5rem"
	viewBox="0 0 25 24"
	version="1.1"
	xmlns="http://www.w3.org/2000/svg"
>
	<g id="✨-Symbols" stroke="none" strokeWidth="1" fill="none" fillRule="evenodd">
		<g
			id="DELETE/foterweb-short"
			transform="translate(-465.000000, -133.000000)"
			fill="#020202"
			fillRule="nonzero"
		>
			<g id="Group-3" transform="translate(123.000000, 77.000000)">
				<g id="Group-2" transform="translate(223.040993, 56.000000)">
					<g id="naverblog_logo" transform="translate(119.739301, 0.000000)">
						<path
							d="M19.2141362,9.58136255e-08 L4.80353404,9.58136255e-08 C2.15046027,0.000529547926 0,2.14975103 0,4.80076701 L0,19.2011502 C0.000529767123,21.8516367 2.15099005,24.0000001 4.80353404,24.0000001 L19.2141362,24.0000001 C20.4881126,24.0002541 21.7100114,23.4948053 22.6110287,22.5948464 C23.512046,21.6948875 24.0183752,20.4741385 24.0186297,19.2011502 L24.0186297,4.80076701 C24.0188841,3.52744653 23.5127796,2.30620493 22.6117071,1.40583137 C21.7106346,0.505457808 20.4884451,-0.00025414177 19.2141362,9.58136255e-08 Z M22.2927434,12.8196197 C22.2947719,13.6823399 21.9536134,14.5105061 21.3443638,15.1218003 C20.7351141,15.7330946 19.9077197,16.0774026 19.0443288,16.0789263 L14.1985827,16.0789263 L12.5446397,18.7697714 C12.529479,18.7987985 12.5107899,18.8258444 12.4889966,18.8502955 C12.3901904,19.0217166 12.2072883,19.1273615 12.0093148,19.1273615 C11.8113413,19.1273615 11.6284392,19.0217166 11.5296329,18.8502955 C11.5095739,18.8266463 11.4915988,18.8013082 11.4759086,18.7745645 L9.82100619,16.0827608 L4.97430078,16.0827608 C4.11083132,16.0814916 3.28328865,15.737265 2.67398382,15.1259154 C2.06467898,14.5145659 1.72360264,13.6862518 1.72588381,12.8234542 L1.72588381,5.09218736 C1.72385765,4.22946722 2.06501614,3.40130096 2.67426582,2.79000675 C3.28351549,2.17871254 4.1109099,1.83440445 4.97430078,1.83288081 L19.0443288,1.83288081 C19.9077197,1.83440445 20.7351141,2.17871254 21.3443638,2.79000675 C21.9536134,3.40130096 22.2947719,4.22946722 22.2927434,5.09218736 L22.2927434,12.8196197 Z"
							id="Shape"
						></path>
						<path
							d="M6.5370953,6.97645019 C6.15968623,7.00668189 5.80528499,7.1853916 5.54005947,7.4792136 L5.54005947,5.45454545 L4.36702359,5.45454545 L4.36702359,10.7729461 L5.55256709,10.7729461 L5.55256709,10.3596493 C5.55256709,10.3596493 5.83220169,10.9090909 6.5353085,10.9090909 C6.5353085,10.9090909 8.18813569,10.8429634 8.18813569,8.92526621 C8.18988767,8.92137636 8.12913638,6.97645019 6.5370953,6.97645019 Z M6.27890233,9.78297923 C5.97384435,9.78337208 5.69862333,9.58365025 5.58163216,9.27698504 C5.46464099,8.97031982 5.52893195,8.61713743 5.74451277,8.38220036 C5.96009358,8.1472633 6.2844856,8.07686423 6.56635725,8.20384492 C6.8482289,8.3308256 7.03203961,8.6301654 7.03203961,8.96221981 C7.03203961,9.4151329 6.69499304,9.78244203 6.27890233,9.78297923 L6.27890233,9.78297923 Z"
							id="Shape"
						></path>
						<path
							d="M8.73404719,5.45454545 L8.73404719,6.68942645 C8.73404719,6.68942645 9.25973977,6.66309013 9.25973977,7.75165821 L9.25973977,10.9090909 L10.3715796,10.9090909 L10.3715796,7.45805696 C10.3715796,7.45805696 10.4145111,5.45454545 8.73404719,5.45454545 Z"
							id="Path"
						></path>
						<path
							d="M13.0766803,7.09090909 C13.0766803,7.09090909 10.9178003,7.09090909 10.9178003,9.01185771 C10.9178003,9.01185771 10.8481269,10.9090909 13.0766803,10.9090909 C13.0766803,10.9090909 15.2843317,10.9090909 15.2843317,9.01185771 C15.2843317,9.01185771 15.3559958,7.09090909 13.0766803,7.09090909 Z M13.0766803,9.81249068 C12.7368166,9.8128739 12.4301941,9.61804959 12.2998548,9.31890434 C12.1695155,9.0197591 12.2411417,8.67523735 12.4813193,8.44606135 C12.7214969,8.21688535 13.0829006,8.14821259 13.3969325,8.27207949 C13.7109644,8.39594638 13.9157471,8.68794585 13.9157471,9.01185771 C13.9157471,9.45366459 13.5402451,9.81196665 13.0766803,9.81249068 L13.0766803,9.81249068 Z"
							id="Shape"
						></path>
						<path
							d="M19.0468135,7.76001828 L19.0468135,8.1002672 C18.7982908,7.80339302 18.4352223,7.63385943 18.054078,7.63671281 C18.054078,7.63671281 16.3763468,7.56439833 16.3763468,9.50112855 C16.3763468,9.50112855 16.3583053,11.3062093 18.0062462,11.3062093 C18.0062462,11.3062093 18.6785989,11.3349497 19.0468135,10.8426549 L19.0468135,11.124496 C19.0468135,11.124496 19.1298422,12.0135933 18.291432,12.0135933 L18.0062462,12.0135933 L18.0062462,13.0909014 L18.4665145,13.0909014 C18.4665145,13.0909014 20.1974841,13.110363 20.1974841,11.1903207 L20.1974841,7.76001828 L19.0468135,7.76001828 Z M18.3383613,10.2965884 C18.030201,10.296963 17.7521811,10.1065559 17.6340002,9.81419309 C17.5158193,9.52183032 17.5807641,9.18511985 17.7985373,8.96113992 C18.0163104,8.73715999 18.3440014,8.67004424 18.6287395,8.79110272 C18.9134777,8.91216121 19.0991582,9.19754022 19.0991582,9.51410807 C19.0993972,9.72154932 19.0193479,9.92057857 18.8766449,10.0673487 C18.733942,10.2141188 18.5402935,10.2965884 18.3383613,10.2965884 L18.3383613,10.2965884 Z"
							id="Shape"
						></path>
					</g>
				</g>
			</g>
		</g>
	</g>
</svg>