<svg
	width="1.563rem"
	height="1.5rem"
	viewBox="0 0 25 24"
	version="1.1"
	xmlns="http://www.w3.org/2000/svg"
	>
<g id="✨-Symbols" stroke="none" strokeWidth="1" fill="none" fillRule="evenodd">
	<g
		id="DELETE/foterweb-short"
		transform="translate(-386.000000, -133.000000)"
		fill="#000000"
		fillRule="nonzero"
	>
		<g id="Group-3" transform="translate(123.000000, 77.000000)">
			<g id="Group-2" transform="translate(223.040993, 56.000000)">
				<g id="facebook_logo" transform="translate(40.329258, 0.000000)">
					<path
						d="M22.6947111,0 L1.32571846,0 C0.974042934,0 0.636702458,0.139239518 0.388030251,0.387700228 C0.139358043,0.636160938 0,0.973214503 0,1.32459093 L0,22.6754091 C0,23.0267855 0.139358043,23.3638391 0.388030251,23.6122998 C0.636702458,23.8607605 0.974042934,24 1.32571846,24 L12.830576,24 L12.830576,14.7962081 L9.69943314,14.7962081 L9.69943314,11.1740418 L12.830576,11.1740418 L12.830576,8.50237935 C12.830576,5.40267543 14.725102,3.71478908 17.4926399,3.71478908 C18.4269624,3.71153826 19.3607655,3.75926941 20.2898782,3.85776933 L20.2898782,7.09505801 L18.3701519,7.09505801 C16.8653313,7.09505801 16.5701272,7.80995927 16.5701272,8.8584811 L16.5701272,11.171344 L20.1602764,11.171344 L19.69227,14.7935104 L16.5737273,14.7935104 L16.5737273,24 L22.6938111,24 C23.0454866,24 23.3828271,23.8607605 23.6314993,23.6122998 C23.8801715,23.3638391 24.0195295,23.0267855 24.0195295,22.6754091 L24.0195295,1.32459093 C24.0195295,0.973370369 23.8802948,0.636453223 23.6318173,0.388018411 C23.3833399,0.1395836 23.0462307,0 22.6947111,0 Z"
						id="Path"
					></path>
				</g>
			</g>
		</g>
	</g>
</g>
</svg>