<svg
	width="1.563rem"
	height="1.5rem"
	viewBox="0 0 25 24"
	version="1.1"
	xmlns="http://www.w3.org/2000/svg"
>
	<g id="✨-Symbols" stroke="none" strokeWidth="1" fill="none" fillRule="evenodd">
		<g
			id="DELETE/foterweb-short"
			transform="translate(-346.000000, -133.000000)"
			fill="#000000"
			fillRule="nonzero"
		>
			<g id="Group-3" transform="translate(123.000000, 77.000000)">
				<g id="Group-2" transform="translate(223.040993, 56.000000)">
					<g id="ig_logo" transform="translate(0.000000, 0.000000)">
						<path
							d="M0,16.3960396 L0,7.6039604 C0.0213937557,7.54208272 0.037370146,7.47847937 0.0477505666,7.41386139 C0.0673282989,7.1239604 0.0840409973,6.83453465 0.0955011333,6.54463366 C0.129404036,5.73005941 0.312288706,4.94875248 0.594494555,4.18550495 C0.997986843,3.09243564 1.68416249,2.20277228 2.59619831,1.49417822 C3.65960343,0.66819802 4.90875825,0.285148515 6.22906142,0.153980198 C7.06087629,0.0712871287 7.90033125,0.0779405941 8.7388312,0.0508514851 C9.03297469,0.0408712871 9.32759569,0.0508514851 9.62173918,0.047049505 C9.69474423,0.0384309176 9.76671801,0.0226715663 9.83661673,0 L14.2296689,0 C14.2748418,0.0226941632 14.323101,0.0387045064 14.3729206,0.0475247525 C15.1727425,0.0660594059 15.973042,0.067960396 16.7723865,0.10170297 C17.3124454,0.124514851 17.8520268,0.180118812 18.3892207,0.244277228 C19.1465447,0.331247525 19.8642357,0.576950495 20.5379962,0.917227723 C21.2579324,1.28324245 21.89571,1.79092228 22.4126835,2.40950495 C22.877355,2.96612833 23.2428342,3.59783004 23.4932788,4.27722772 C23.8838784,5.31992079 24.0099399,6.40538614 24.018535,7.50891089 C24.0269879,7.60505029 24.0429531,7.70038821 24.0662856,7.79405941 L24.0662856,16.2534653 C24.0500504,16.2853069 24.0214,16.316198 24.018535,16.3485149 C23.9994348,16.7016238 23.9956147,17.0556832 23.9655319,17.4078416 C23.9282864,17.8355644 23.9087087,18.2680396 23.8136851,18.6829307 C23.5023514,20.0416634 22.9226595,21.2530693 21.8463617,22.1997624 C21.2180338,22.7623882 20.483548,23.1950183 19.6856486,23.4724752 C18.6313161,23.8384158 17.5368731,23.9524752 16.4261949,23.9524752 C16.32954,23.9604229 16.2337117,23.9763187 16.1396915,24 L7.92659406,24 C7.88092604,23.9785109 7.83283148,23.9625552 7.78334236,23.9524752 C7.10910436,23.9025743 6.43247883,23.8735842 5.76015085,23.8037228 C5.05105494,23.7300594 4.37538442,23.5147723 3.73027427,23.2148911 C2.94850925,22.8492745 2.25269976,22.3241777 1.68798253,21.6736634 C1.26494039,21.1927619 0.923939551,20.6461124 0.678535552,20.0554455 C0.219652606,18.9552475 0.0420204986,17.7975446 0.0477505666,16.609901 C0.03962816,16.5371088 0.023618182,16.4654046 0,16.3960396 Z M16.0718857,21.8138614 C16.0718857,21.8067327 16.0718857,21.7991287 16.0718857,21.7915248 C16.5742217,21.751604 17.0746476,21.7107327 17.5788936,21.6722376 C18.3052288,21.6218316 19.0115621,21.4131888 19.6479257,21.0610693 C20.3383616,20.6769502 20.8944678,20.0921356 21.2418396,19.3848713 C21.5641559,18.7475644 21.7064526,18.0508515 21.7670958,17.3460594 C21.8272615,16.6498218 21.8649845,15.9493069 21.862704,15.2506931 C21.8597319,12.9015446 21.8339466,10.552396 21.8205764,8.20372277 C21.8162789,7.41148515 21.7885836,6.62352475 21.6324392,5.84174257 C21.4610147,4.98154455 21.107183,4.21782178 20.4864256,3.59192079 C19.9420691,3.04158416 19.2678311,2.7160396 18.5224448,2.5150099 C17.609454,2.26883168 16.6687678,2.25172277 15.7395418,2.24459406 C13.1251982,2.22463366 10.5103772,2.26835644 7.89555619,2.27643564 C7.16927007,2.27881188 6.44823652,2.31635644 5.7386631,2.47128713 C4.67000542,2.70510891 3.77229476,3.20839604 3.13195967,4.12039604 C2.60049586,4.8769901 2.3679506,5.73623762 2.29966729,6.63255446 C2.22708643,7.55643564 2.21514879,8.48839604 2.19652606,9.4170297 C2.18076838,10.2800792 2.1826784,11.143604 2.19652606,12.0066535 C2.22135636,13.7115248 2.25319007,15.4160792 2.2920272,17.1203168 C2.30602126,17.8532048 2.46537652,18.5761183 2.76093776,19.2475248 C3.1429423,20.1172277 3.77659231,20.7478812 4.60219961,21.1784554 C5.25256233,21.5139802 5.96882083,21.6579802 6.69462944,21.7140594 C7.45863851,21.7725149 8.22551261,21.8091089 8.9914317,21.8091089 C11.3512647,21.8228911 13.7115752,21.8138614 16.0718857,21.8138614 Z"
							id="Shape"
						></path>
						<path
							d="M5.79377697,12.0110494 C5.78133171,8.59905282 8.56595327,5.63595277 12.3154428,5.78302984 C15.4900459,5.90759023 18.3529519,8.50227898 18.2708253,12.1624381 C18.1949422,15.4719119 15.5539222,18.2606274 11.9341063,18.221822 C8.56883491,18.1878075 5.81399025,15.5049683 5.79377697,12.0110494 Z M16.023629,12.0024259 C16.0558072,9.77902298 14.2149217,7.97816718 12.0267989,7.99733032 C9.74982567,8.01888885 8.02612667,9.76321339 8.0198684,12.0048213 C8.01411985,14.1673813 9.70083784,15.8642771 11.8034721,15.9874003 C14.215402,16.1277703 16.097591,14.1051011 16.023629,12.0024259 Z"
							id="Shape"
						></path>
						<path
							d="M16.9436436,5.55696151 C16.8444033,4.77301115 17.6719149,3.95770279 18.5548992,4.00170516 C19.3004738,4.03913247 20.0786196,4.70624893 20.0547002,5.6045043 C20.0338343,6.36316593 19.346786,7.13143728 18.454641,7.11070053 C17.6943075,7.09249265 16.8713763,6.42082422 16.9436436,5.55696151 Z"
							id="Path"
						></path>
					</g>
				</g>
			</g>
		</g>
	</g>
</svg>