<svg
	width="1.563rem"
	height="1.5rem"
	viewBox="0 0 25 24"
	version="1.1"
	xmlns="http://www.w3.org/2000/svg"
>
	<g id="✨-Symbols" stroke="none" strokeWidth="1" fill="none" fillRule="evenodd">
		<g
			id="DELETE/foterweb-short"
			transform="translate(-426.000000, -133.000000)"
			fill="#000000"
			fillRule="nonzero"
		>
			<g id="Group-3" transform="translate(123.000000, 77.000000)">
				<g id="Group-2" transform="translate(223.040993, 56.000000)">
					<g id="kakao_logo" transform="translate(80.000695, 0.000000)">
						<path
							d="M22.0839571,0 L1.9346725,0 C0.867067184,0.00213142946 0.00213308394,0.866394661 0,1.93317191 L0,22.0668281 C0.00213308394,23.1336053 0.867067184,23.9978686 1.9346725,24 L22.0839571,24 C23.1515624,23.9978686 24.0164965,23.1336053 24.0186296,22.0668281 L24.0186296,1.93317191 C24.0164965,0.866394661 23.1515624,0.00213142946 22.0839571,0 Z M11.9375884,18.3743341 C11.3614567,18.374321 10.7861021,18.3320769 10.2161564,18.2479419 C9.18872511,18.946247 6.80721693,20.5636804 6.64777122,20.6692494 C6.44470815,20.8048426 6.13405558,20.8116223 6.2600613,20.3079903 C6.36183516,19.9021792 6.87021979,18.0043584 7.06407475,17.2808717 C4.42377019,15.9898305 2.6655057,13.6823245 2.6655057,11.0493947 C2.6655057,7.00338983 6.81690968,3.72445521 11.9380731,3.72445521 C17.0592365,3.72445521 21.2106405,7.00338983 21.2106405,11.0493947 C21.2106405,15.0953995 17.0592365,18.3743341 11.9375884,18.3743341 Z"
							id="Shape"
						></path>
						<path
							d="M8.1482906,9.05660377 L5.44476548,9.05660377 C5.19084324,9.05660377 4.98499859,9.25894229 4.98499859,9.50853951 C4.98499859,9.75813672 5.19084324,9.96047524 5.44476548,9.96047524 L6.32359074,9.96047524 L6.32359074,13.1437976 C6.3241165,13.3870168 6.52443038,13.5841291 6.77186346,13.5849057 L6.87291639,13.5849057 C7.11994494,13.5833595 7.31966511,13.3866212 7.32071019,13.1437976 L7.32071019,9.96047524 L8.15068522,9.96047524 C8.40460746,9.96047524 8.61045211,9.75813672 8.61045211,9.50853951 C8.61045211,9.25894229 8.40460746,9.05660377 8.15068522,9.05660377 L8.1482906,9.05660377 Z"
							id="Path"
						></path>
						<path
							d="M14.9974591,12.6919851 L13.7096699,12.6919851 L13.7096699,9.15411396 C13.7154351,8.95955266 13.6194782,8.77713378 13.4592592,8.67807081 C13.2990402,8.57900784 13.0999629,8.57900784 12.9397439,8.67807081 C12.7795249,8.77713378 12.683568,8.95955266 12.6893332,9.15411396 L12.6893332,12.9675968 C12.6896861,12.9962915 12.6923076,13.0249065 12.6971707,13.0531492 C12.6920666,13.081184 12.6894431,13.109651 12.6893332,13.1381892 C12.6892032,13.2566187 12.7340964,13.3702441 12.814123,13.4540344 C12.8941496,13.5378248 13.0027441,13.5849057 13.1159838,13.5849057 L14.9954997,13.5849057 C15.2256413,13.5767514 15.4081775,13.3792725 15.4081775,13.1384454 C15.4081775,12.8976182 15.2256413,12.7001394 14.9954997,12.6919851 L14.9974591,12.6919851 Z"
							id="Path"
						></path>
						<path
							d="M18.9474935,12.8340885 L17.4554569,10.8752686 L18.8031358,9.52724153 C18.9862534,9.34421521 18.9862534,9.0474709 18.8031358,8.86444457 C18.6200182,8.68141824 18.323126,8.68141824 18.1400084,8.86444457 L16.4709677,10.5326535 L16.4709677,9.15148664 C16.4769714,8.95785417 16.377046,8.77630616 16.2102009,8.67771612 C16.0433559,8.57912607 15.8360454,8.57912607 15.6692003,8.67771612 C15.5023552,8.77630616 15.4024299,8.95785417 15.4084336,9.15148664 L15.4084336,13.0635183 C15.4173278,13.3503788 15.6525593,13.5783197 15.9397006,13.5783197 C16.226842,13.5783197 16.4620734,13.3503788 16.4709677,13.0635183 L16.4709677,11.8562081 L16.774476,11.5533609 L18.1854071,13.4046038 C18.3454389,13.6067019 18.6374884,13.6444403 18.843681,13.4896654 C19.0498736,13.3348905 19.0950258,13.0440376 18.9454531,12.8340885 L18.9474935,12.8340885 Z"
							id="Path"
						></path>
						<path
							d="M12.2075338,12.944951 L10.8490347,9.0211259 L10.8446882,9.01704919 C10.7572768,8.77805257 10.506633,8.60377358 10.2081785,8.60377358 C9.87640141,8.60377358 9.60209373,8.81780041 9.54752195,9.09756405 C9.53834617,9.11845714 9.52917038,9.13935024 9.5214434,9.16228168 L8.18564224,12.9429127 C8.12873408,13.1040473 8.15871902,13.2850488 8.2640571,13.416257 C8.36939518,13.5474653 8.53366742,13.608429 8.69365222,13.5756858 C8.85363701,13.5429425 8.98439763,13.421596 9.03560972,13.2583475 L9.2669361,12.5622507 L11.1252741,12.5622507 L11.3575663,13.2588571 C11.4087784,13.4221056 11.539539,13.5434521 11.6995238,13.5761953 C11.8595086,13.6089386 12.0237809,13.5479749 12.129119,13.4167666 C12.234457,13.2855584 12.264442,13.1045569 12.2075338,12.9434223 L12.2075338,12.944951 Z M9.56201003,11.6755681 L10.1869293,9.79366082 C10.1936904,9.79366082 10.1999686,9.79366082 10.2067297,9.79366082 L10.831166,11.6730202 L9.56201003,11.6755681 Z"
							id="Shape"
						></path>
					</g>
				</g>
			</g>
		</g>
	</g>
</svg>