<svg width="48px" height="48px" viewBox="0 0 48 48" version="1.1" xmlns="http://www.w3.org/2000/svg" xmlns:xlink="http://www.w3.org/1999/xlink">
    <g id="메인" stroke="none" stroke-width="1" fill="none" fill-rule="evenodd">
        <g id="main/login/web" transform="translate(-973.000000, -9335.000000)">
            <g id="Group-5" transform="translate(973.000000, 9335.000000)">
                <rect id="Rectangle-Copy-2" x="0" y="0" width="48" height="48"></rect>
                <path d="M31.4999206,22.6688439 L21.7820348,31.5414762 C21.1124279,32.1528413 20.0307551,32.1528413 19.3611481,31.5414762 L14.5022052,27.10516 C13.8325983,26.4937949 13.8325983,25.5062051 14.5022052,24.89484 L14.5022052,24.89484 C15.1718122,24.2834749 16.253485,24.2834749 16.923092,24.89484 L20.5630068,28.2181581 L29.0618644,20.4585238 C29.7314714,19.8471587 30.8131442,19.8471587 31.4827512,20.4585238 L31.4827512,20.4585238 C32.1695275,21.069889 32.1695275,22.0574788 31.4999206,22.6688439 Z M9.11111111,23.771896 C9.11111111,19.903631 10.6977778,16.4338138 13.1866667,14.0099225 L15.5666667,16.5500278 C16.0488889,17.0646897 16.8888889,16.6994458 16.8888889,15.952356 L16.8888889,8.83009979 C16.8888889,8.36524391 16.5466667,8 16.1111111,8 L9.43777778,8 C8.73777778,8 8.39555556,8.89650777 8.89333333,9.41116964 L10.9777778,11.6524391 C7.92888889,14.6740023 6,18.9739192 6,23.771896 C6,31.657844 11.1644444,38.2654383 18.0711111,39.9588418 C19.0511111,40.1912698 20,39.410976 20,38.3318462 L20,38.3318462 C20,37.5515524 19.4866667,36.8874726 18.7711111,36.7048507 C13.2488889,35.360089 9.11111111,30.0806544 9.11111111,23.771896 Z M40,24.228104 C40,16.342156 34.8355556,9.73456174 27.9288889,8.04115817 C26.9488889,7.80873023 26,8.58902403 26,9.66815375 L26,9.66815375 C26,10.4484476 26.5133333,11.1125274 27.2288889,11.2951493 C32.7511111,12.639911 36.8888889,17.9193456 36.8888889,24.228104 C36.8888889,28.096369 35.3022222,31.5661862 32.8133333,33.9900775 L30.4333333,31.4499722 C29.9511111,30.9353103 29.1111111,31.3005542 29.1111111,32.047644 L29.1111111,39.1699002 C29.1111111,39.6347561 29.4533333,40 29.8888889,40 L36.5622222,40 C37.2622222,40 37.6044444,39.1034922 37.1066667,38.5888304 L35.0222222,36.3475609 C38.0711111,33.3259977 40,29.0260808 40,24.228104 Z" id="Shape" fill="#FF5100" fill-rule="nonzero"></path>
            </g>
        </g>
    </g>
</svg>