<svg width="48px" height="48px" viewBox="0 0 48 48" version="1.1" xmlns="http://www.w3.org/2000/svg" xmlns:xlink="http://www.w3.org/1999/xlink">
    <g id="메인" stroke="none" stroke-width="1" fill="none" fill-rule="evenodd">
        <g id="main/login/web" transform="translate(-531.000000, -9335.000000)">
            <g id="videocam-24px" transform="translate(531.000000, 9335.000000)">
                <rect id="Rectangle" x="0" y="0" width="48" height="48"></rect>
                <path d="M34,21 L34,14 C34,12.9 33.1,12 32,12 L8,12 C6.9,12 6,12.9 6,14 L6,34 C6,35.1 6.9,36 8,36 L32,36 C33.1,36 34,35.1 34,34 L34,27 L38.58,31.58 C39.84,32.84 42,31.94 42,30.16 L42,17.82 C42,16.04 39.84,15.14 38.58,16.4 L34,21 Z" id="Path" fill="#FF5100" fill-rule="nonzero"></path>
            </g>
        </g>
    </g>
</svg>